<mxfile host="Electron" modified="2025-07-02T15:00:14.052Z" agent="Mozilla/5.0 (Windows NT 10.0; Win64; x64) AppleWebKit/537.36 (KHTML, like Gecko) draw.io/24.1.0 Chrome/120.0.6099.109 Electron/28.1.0 Safari/537.36" etag="kxfPGKQPmaooL6uEsxcW" version="24.1.0" type="device">
  <diagram name="第 1 页" id="m4WlvHM6WWsqlOekGDqn">
    <mxGraphModel dx="490" dy="661" grid="1" gridSize="10" guides="1" tooltips="1" connect="1" arrows="1" fold="1" page="1" pageScale="1" pageWidth="827" pageHeight="1169" math="0" shadow="0">
      <root>
        <mxCell id="0" />
        <mxCell id="1" parent="0" />
        <mxCell id="K8trbJLzHtX-AJA_kqR3-18" value="" style="rounded=0;orthogonalLoop=1;jettySize=auto;html=1;endArrow=none;endFill=0;" edge="1" parent="1" source="K8trbJLzHtX-AJA_kqR3-11" target="K8trbJLzHtX-AJA_kqR3-12">
          <mxGeometry relative="1" as="geometry" />
        </mxCell>
        <mxCell id="K8trbJLzHtX-AJA_kqR3-11" value="学生学籍管理系统" style="rounded=0;whiteSpace=wrap;html=1;" vertex="1" parent="1">
          <mxGeometry x="170" y="60" width="120" height="60" as="geometry" />
        </mxCell>
        <mxCell id="K8trbJLzHtX-AJA_kqR3-19" value="" style="rounded=0;orthogonalLoop=1;jettySize=auto;html=1;edgeStyle=orthogonalEdgeStyle;endArrow=none;endFill=0;" edge="1" parent="1" source="K8trbJLzHtX-AJA_kqR3-12" target="K8trbJLzHtX-AJA_kqR3-15">
          <mxGeometry relative="1" as="geometry" />
        </mxCell>
        <mxCell id="K8trbJLzHtX-AJA_kqR3-12" value="&lt;font style=&quot;font-size: 17px;&quot;&gt;管理员&lt;/font&gt;" style="rounded=0;whiteSpace=wrap;html=1;" vertex="1" parent="1">
          <mxGeometry x="170" y="170" width="120" height="60" as="geometry" />
        </mxCell>
        <mxCell id="K8trbJLzHtX-AJA_kqR3-17" style="edgeStyle=orthogonalEdgeStyle;rounded=0;orthogonalLoop=1;jettySize=auto;html=1;exitX=0.5;exitY=0;exitDx=0;exitDy=0;entryX=0.5;entryY=0;entryDx=0;entryDy=0;endArrow=none;endFill=0;" edge="1" parent="1" source="K8trbJLzHtX-AJA_kqR3-13" target="K8trbJLzHtX-AJA_kqR3-16">
          <mxGeometry relative="1" as="geometry">
            <Array as="points">
              <mxPoint x="105" y="270" />
              <mxPoint x="355" y="270" />
            </Array>
          </mxGeometry>
        </mxCell>
        <mxCell id="K8trbJLzHtX-AJA_kqR3-13" value="&lt;font style=&quot;font-size: 25px;&quot;&gt;添加学生信息&lt;/font&gt;" style="rounded=0;whiteSpace=wrap;html=1;" vertex="1" parent="1">
          <mxGeometry x="80" y="310" width="50" height="200" as="geometry" />
        </mxCell>
        <mxCell id="K8trbJLzHtX-AJA_kqR3-20" value="" style="edgeStyle=orthogonalEdgeStyle;rounded=0;orthogonalLoop=1;jettySize=auto;html=1;endArrow=none;endFill=0;" edge="1" parent="1" source="K8trbJLzHtX-AJA_kqR3-14" target="K8trbJLzHtX-AJA_kqR3-12">
          <mxGeometry relative="1" as="geometry" />
        </mxCell>
        <mxCell id="K8trbJLzHtX-AJA_kqR3-14" value="&lt;font style=&quot;font-size: 25px;&quot;&gt;查询学生信息&lt;/font&gt;" style="rounded=0;whiteSpace=wrap;html=1;" vertex="1" parent="1">
          <mxGeometry x="160" y="310" width="50" height="200" as="geometry" />
        </mxCell>
        <mxCell id="K8trbJLzHtX-AJA_kqR3-15" value="&lt;font style=&quot;font-size: 25px;&quot;&gt;查询学籍状态&lt;/font&gt;" style="rounded=0;whiteSpace=wrap;html=1;" vertex="1" parent="1">
          <mxGeometry x="250" y="310" width="50" height="200" as="geometry" />
        </mxCell>
        <mxCell id="K8trbJLzHtX-AJA_kqR3-16" value="&lt;font style=&quot;font-size: 25px;&quot;&gt;系统维护&lt;/font&gt;" style="rounded=0;whiteSpace=wrap;html=1;" vertex="1" parent="1">
          <mxGeometry x="330" y="310" width="50" height="200" as="geometry" />
        </mxCell>
      </root>
    </mxGraphModel>
  </diagram>
</mxfile>
